<svg width="18" height="18" viewBox="0 0 18 18" fill="none" xmlns="http://www.w3.org/2000/svg">
<path d="M16.668 4.17114e-05H1.323C0.976047 -0.00236717 0.642237 0.132537 0.394382 0.375333C0.146526 0.618129 0.00474454 0.94911 0 1.29604V16.704C0.00474454 17.0509 0.146526 17.3819 0.394382 17.6247C0.642237 17.8675 0.976047 18.0024 1.323 18H16.668C17.0158 18.0024 17.3506 17.8678 17.5999 17.6252C17.8492 17.3827 17.9929 17.0517 18 16.704V1.26003C17.9837 0.918623 17.836 0.596757 17.5877 0.361875C17.3393 0.126993 17.0098 -0.00267066 16.668 4.17114e-05ZM5.33699 15.3H2.63699V6.71401H5.33699V15.3ZM3.996 5.53501C3.68984 5.53501 3.39056 5.44424 3.13599 5.27414C2.88143 5.10405 2.68299 4.86229 2.56583 4.57943C2.44866 4.29657 2.41802 3.98531 2.47775 3.68503C2.53748 3.38475 2.68492 3.10892 2.90141 2.89243C3.1179 2.67594 3.39373 2.5285 3.69402 2.46877C3.9943 2.40904 4.30552 2.43972 4.58839 2.55688C4.87124 2.67404 5.11301 2.87245 5.28311 3.12701C5.4532 3.38158 5.544 3.68085 5.544 3.98702C5.544 4.39757 5.3809 4.7913 5.0906 5.08161C4.80029 5.37191 4.40656 5.53501 3.996 5.53501ZM15.336 15.3H12.636V11.124C12.636 10.125 12.636 8.84699 11.25 8.84699C9.864 8.84699 9.648 9.936 9.648 11.052V15.3H6.948V6.71401H9.504V7.88402C9.76154 7.44656 10.1325 7.08682 10.5777 6.84285C11.0229 6.59888 11.5257 6.47973 12.033 6.49802C14.733 6.49802 15.237 8.298 15.237 10.593L15.336 15.3Z" fill="#0066FF"/>
</svg>
