<svg width="105" height="64" viewBox="0 0 105 64" fill="none" xmlns="http://www.w3.org/2000/svg">
<g clip-path="url(#clip0_1073_268430)">
<path d="M104 0.496124H9V55.0698H63.5V30.7597H104V0.496124Z" fill="#FBFBFB"/>
<path d="M104.648 31.9505C104.872 31.7289 105 31.4241 105 31.1114V1.18746C105 0.530398 104.464 0 103.8 0H8.49406C8.17413 0 7.8702 0.126662 7.64625 0.348321L0.35192 7.56806C0.127971 7.78972 0 8.0945 0 8.4072V62.8125C0 63.4696 0.535878 64 1.19973 64H55.7313C56.0512 64 56.3551 63.8733 56.5791 63.6517L63.8734 56.4319C64.0974 56.2103 64.2253 55.9055 64.2253 55.5928V39.9184C64.2253 39.7007 64.4053 39.5225 64.6252 39.5225H96.5019C96.8219 39.5225 97.1258 39.3959 97.3497 39.1742L104.644 31.9545L104.648 31.9505ZM103.4 30.0189H62.6297V54.4964H9.59781V1.58328H103.4V30.0189Z" fill="#0066FF"/>
<path d="M13.5958 5.54147H22.5497V9.4482H17.8548V13.7508H22.0859V17.6852H17.8548V22.0194H22.6337V26.0647H13.5918V5.54147H13.5958Z" fill="#0066FF"/>
<path d="M24.6211 5.54147H28.4242L31.7355 15.6032L32.0514 16.8302L31.9354 14.7799V5.54147H35.8225V26.0607H32.1074L28.7082 15.9713L28.3642 14.7443L28.5082 16.9094V26.0568H24.6211V5.54147Z" fill="#0066FF"/>
<path d="M42.4772 5.54147V13.6914H44.5807V5.54147H48.8997V26.0607H44.5807V17.796H42.4772V26.0607H38.1582V5.54147H42.4772Z" fill="#0066FF"/>
<path d="M54.195 5.54147H58.458L62.4331 26.0607H58.1141L57.7981 23.8679H54.9188L54.6029 26.0607H50.3398L54.199 5.54147H54.195ZM55.4027 20.2778H57.2743L56.5264 15.0609L56.3265 12.2664L56.1545 15.0609L55.4067 20.2778H55.4027Z" fill="#0066FF"/>
<path d="M63.8399 5.54147H67.6391L70.9503 15.6032L71.2662 16.8302L71.1503 14.7799V5.54147H75.0374V26.0607H71.3222L67.923 15.9713L67.5791 14.7443L67.723 16.9094V26.0568H63.8359V5.54147H63.8399Z" fill="#0066FF"/>
<path d="M77.2579 20.8201V10.6436C77.2579 6.82392 79.3894 5.25648 82.7567 5.25648C86.1239 5.25648 88.2274 6.79621 88.2274 10.3032V14.1228H83.6764V10.7029C83.6764 9.50758 83.5045 9.04843 82.7247 9.04843C81.9448 9.04843 81.7449 9.5907 81.7449 11.0156V20.448C81.7449 21.9007 81.8888 22.3875 82.7247 22.3875C83.4725 22.3875 83.6764 21.9046 83.6764 20.6776V16.945H88.2554V20.9903C88.1674 24.9247 86.2399 26.3497 82.6967 26.3497C79.1535 26.3497 77.2539 24.7268 77.2539 20.8201H77.2579Z" fill="#0066FF"/>
<path d="M90.3595 5.54147H99.3134V9.4482H94.6185V13.7508H98.8535V17.6852H94.6185V22.0194H99.3974V26.0647H90.3555V5.54147H90.3595Z" fill="#0066FF"/>
<path d="M16.0161 33.9534H13.2207V30.0189H23.1264V33.9534H20.3351V50.5421H16.0161V33.9534Z" fill="#0066FF"/>
<path d="M29.405 30.0189V38.1688H31.5085V30.0189H35.8275V50.5382H31.5085V42.2735H29.405V50.5382H25.0859V30.0189H29.405Z" fill="#0066FF"/>
<path d="M41.1227 30.0189H45.3857L49.3608 50.5382H45.0418L44.7259 48.3453H41.8465L41.5306 50.5382H37.2676L41.1267 30.0189H41.1227ZM42.3344 44.7553H44.206L43.4582 39.5384L43.2582 36.7439L43.0862 39.5384L42.3384 44.7553H42.3344Z" fill="#0066FF"/>
<path d="M51.516 33.9534H48.7246V30.0189H58.6303V33.9534H55.839V50.5421H51.52V33.9534H51.516Z" fill="#0066FF"/>
</g>
<defs>
<clipPath id="clip0_1073_268430">
<rect width="105" height="64" fill="white"/>
</clipPath>
</defs>
</svg>
