<svg width="16" height="16" viewBox="0 0 16 16" fill="none" xmlns="http://www.w3.org/2000/svg">
<path d="M14.816 3.70768e-05H1.176C0.867598 -0.00210415 0.570877 0.117811 0.350562 0.333629C0.130246 0.549448 0.00421737 0.843654 0 1.15203V14.848C0.00421737 15.1564 0.130246 15.4506 0.350562 15.6664C0.570877 15.8822 0.867598 16.0021 1.176 16H14.816C15.1252 16.0021 15.4227 15.8825 15.6443 15.6669C15.8659 15.4513 15.9937 15.1571 16 14.848V1.12003C15.9855 0.816554 15.8542 0.530451 15.6335 0.321667C15.4128 0.112883 15.1198 -0.00237392 14.816 3.70768e-05V3.70768e-05ZM4.74399 13.6H2.34399V5.96801H4.74399V13.6ZM3.552 4.92001C3.27985 4.92001 3.01383 4.83932 2.78755 4.68813C2.56127 4.53693 2.38488 4.32203 2.28074 4.0706C2.17659 3.81917 2.14935 3.5425 2.20244 3.27559C2.25553 3.00867 2.38659 2.76348 2.57903 2.57105C2.77147 2.37861 3.01665 2.24755 3.28357 2.19446C3.55049 2.14137 3.82713 2.16864 4.07856 2.27278C4.33 2.37693 4.5449 2.55329 4.69609 2.77957C4.84729 3.00585 4.928 3.27187 4.928 3.54402C4.928 3.90895 4.78303 4.25894 4.52498 4.51699C4.26693 4.77504 3.91694 4.92001 3.552 4.92001V4.92001ZM13.632 13.6H11.232V9.88799C11.232 8.99999 11.232 7.86399 10 7.86399C8.768 7.86399 8.576 8.832 8.576 9.824V13.6H6.176V5.96801H8.448V7.00802C8.67693 6.61917 9.00668 6.2994 9.40239 6.08253C9.7981 5.86567 10.2451 5.75976 10.696 5.77601C13.096 5.77601 13.544 7.376 13.544 9.41599L13.632 13.6Z" fill="#0F2B63"/>
</svg>
